<?xml version="1.0" encoding="utf-8"?>
<!-- Generator: Adobe Illustrator 26.5.1, SVG Export Plug-In . SVG Version: 6.00 Build 0)  -->
<svg version="1.1" id="Layer_1" xmlns="http://www.w3.org/2000/svg" xmlns:xlink="http://www.w3.org/1999/xlink" x="0px" y="0px"
	 viewBox="0 0 262.7 262.7" style="enable-background:new 0 0 262.7 262.7;" xml:space="preserve">
<style type="text/css">
	.st0{fill:#B31B1B;}
	.st1{fill:none;stroke:#47BD9D;stroke-width:2.2;stroke-miterlimit:10;}
</style>
<g>
	<g>
		<g>
			<g>
				<g>
					<g>
						<path class="st0" d="M20.2,132.3c5.5,0,8.8-3.5,9.2-9.7c0-1.1,0-2.6-0.2-4.2V118h-4.6l0.4,0.9c0.2,0.7,0.4,2.2,0.4,3.5
							c-0.2,3.1-2.6,5.1-5.9,4.8c-3.5-0.2-5.5-2.4-5.5-5.5c0-1.1,0.2-2.2,1.1-3.3l0.7-0.9l-4.4-0.7l-0.2,0.4
							c-0.7,1.3-0.9,2.9-1.1,4.2c-0.4,6.4,3.1,10.6,9.5,10.8C19.7,132.3,19.9,132.3,20.2,132.3z"/>
					</g>
				</g>
			</g>
			<g>
				<g>
					<g>
						<path class="st0" d="M21,110.8c1.3,0.4,2.4,0.4,3.5,0.4c4.2,0,7.3-2.4,8.6-6.6c0.7-2.6,0.4-4.8-0.7-7
							c-1.3-2.2-3.5-3.7-6.4-4.6c-1.1-0.4-2.4-0.4-3.3-0.4c-4.2,0-7.3,2.4-8.6,6.6C12.5,104.6,15.1,109,21,110.8z M18,100.4
							c0.7-2.4,2.6-2.9,4.2-2.9c0.7,0,1.5,0.2,2.4,0.4c2,0.7,3.5,1.5,4.2,2.9c0.4,0.9,0.7,1.8,0.2,2.9c-0.7,2.4-2.6,2.9-4.2,2.9
							c-0.9,0-1.5-0.2-2.4-0.4C19.7,105.3,17.1,103.3,18,100.4z"/>
					</g>
				</g>
			</g>
			<g>
				<g>
					<g>
						<path class="st0" d="M40,86.1l-6.4-3.5l0.2-0.4c0.7-1.1,1.1-1.1,2-0.9l6.4,0.9l2.4-4.6l-8.4-0.9c-0.7,0-1.1,0-1.5,0
							c0-1.8-0.9-3.5-2.6-4.4c-0.9-0.4-1.8-0.7-2.6-0.7c-3.1,0-4.6,3.1-6.2,5.9L21,81.7l16.7,9L40,86.1z M30.1,80.2l-0.2,0.4
							l-3.1-1.5l0.2-0.4c0.7-1.3,1.5-2.6,2.9-2c0.4,0.2,0.7,0.4,0.9,0.9C30.9,78.4,30.5,79.5,30.1,80.2z"/>
					</g>
				</g>
			</g>
			<g>
				<g>
					<g>
						<polygon class="st0" points="50.3,69.4 41.7,62.4 54,65.2 57.3,61 42.8,48.9 39.7,52.5 48.5,59.7 36.2,56.9 32.7,61 
							47.4,73.1 						"/>
					</g>
				</g>
			</g>
			<g>
				<g>
					<g>
						<polygon class="st0" points="71.6,48.9 69,45.9 63.7,50 61.3,47.2 66.1,43.2 63.5,40.1 58.7,44.1 56.9,41.7 62.2,37.5 
							59.5,34.2 50.5,41.5 62.4,56.2 						"/>
					</g>
				</g>
			</g>
			<g>
				<g>
					<g>
						<polygon class="st0" points="87.3,39.5 85.3,36 79.3,39.3 72.1,26.3 67.9,28.7 77.1,45.2 						"/>
					</g>
				</g>
			</g>
			<g>
				<g>
					<g>
						<polygon class="st0" points="103.3,33.3 101.8,29.6 95.6,31.8 90.6,17.9 85.9,19.5 92.3,37.3 						"/>
					</g>
				</g>
			</g>
			<g>
				<g>
					<g>
						<path class="st0" d="M122.5,30.2c0.4,0,0.7,0,1.1,0c2.6-0.2,4.6-1.1,5.7-2.4s1.5-3.3,1.3-5.5l-0.9-11.9l-4.8,0.2l0.9,10.8
							c0.2,3.7-1.3,4.4-2.6,4.6c-0.2,0-0.2,0-0.4,0c-1.1,0-2.6-0.4-3.1-4.2L118.8,11l-4.8,0.4l0.9,11.9
							C115.6,27.8,118.1,30.2,122.5,30.2z"/>
					</g>
				</g>
			</g>
			<g>
				<g>
					<g>
						<polygon class="st0" points="144.2,19 148.2,30.7 153.7,31.6 156.1,12.6 151.5,12 150,23.2 146,11.3 140.7,10.7 138.1,29.4 
							142.7,30 						"/>
					</g>
				</g>
			</g>
			<g>
				<g>
					<g>
						<polygon class="st0" points="170.4,16.8 165.8,15.3 160.1,33.3 164.7,34.9 						"/>
					</g>
				</g>
			</g>
			<g>
				<g>
					<g>
						<polygon class="st0" points="194.2,27.4 190,25.2 180.8,34.6 182.7,21.7 178.1,19.2 175.3,39.3 180.1,41.5 						"/>
					</g>
				</g>
			</g>
			<g>
				<g>
					<g>
						<polygon class="st0" points="199,54.7 201.4,51.4 196.2,47.2 198.4,44.3 203.2,48.1 205.8,44.8 201,41 202.8,38.6 208,42.8 
							210.7,39.5 201.4,32.4 189.8,47.4 						"/>
					</g>
				</g>
			</g>
			<g>
				<g>
					<g>
						<path class="st0" d="M206.9,62.6l5.5-4.8l0.2,0.4c0.7,0.9,0.7,1.1,0.2,2.2l-3.1,5.7l3.5,4l3.7-7.5c0.2-0.2,0.4-0.9,0.4-1.5
							c1.5,0.7,3.5,0.4,5.1-0.9c4.2-3.5,0.9-7.3-1.5-10.1l-3.1-3.5l-14.3,12.5L206.9,62.6z M218.2,52.7l0.2,0.4
							c0.7,0.9,1.3,1.8,1.3,2.4c0,0.4-0.2,0.7-0.7,0.9c-0.2,0.4-0.7,0.4-0.9,0.4c-0.9,0-1.8-0.9-2.2-1.5l-0.2-0.4L218.2,52.7z"/>
					</g>
				</g>
			</g>
			<g>
				<g>
					<g>
						<path class="st0" d="M224.5,77.8c-0.9,0.7-2.2-0.4-2.6-1.3c-0.7-1.1-0.9-2.2-0.9-3.7v-1.1l-4.4,2l0.2,0.9
							c0.4,1.5,0.7,2.4,1.5,4c1.5,2.6,3.5,4,5.7,4c1.1,0,2-0.2,3.1-0.9c3.3-2,2.9-5.1,2.4-7.5c-0.2-1.5-0.4-2.6,0.2-3.1
							c0.4-0.2,0.7-0.2,0.9-0.2c0.9,0,1.5,0.9,1.8,1.1c0.7,0.9,0.9,2,1.1,3.1l0.2,0.9l4-1.8v-0.4c-0.2-1.3-0.9-2.6-1.8-4.2
							c-2-3.5-5.5-4.6-8.6-2.6c-3.3,2-2.9,5.1-2.4,7.3C225.2,76.2,225.4,77.3,224.5,77.8z"/>
					</g>
				</g>
			</g>
			<g>
				<g>
					<g>
						
							<rect x="225.2" y="86.8" transform="matrix(0.9259 -0.3777 0.3777 0.9259 -16.3094 95.2348)" class="st0" width="18.9" height="4.8"/>
					</g>
				</g>
			</g>
			<g>
				<g>
					<g>
						<polygon class="st0" points="244.3,101.3 230,104.8 231.1,109.4 245.7,105.9 246.8,110.8 250.7,109.9 247.2,95.4 243.2,96.5 
													"/>
					</g>
				</g>
			</g>
			<g>
				<g>
					<g>
						<polygon class="st0" points="233.1,123.3 233.3,128.2 240.8,127.7 252.7,133.9 252.4,128.6 245.4,125.3 252,121.1 
							251.6,115.4 240.6,123.1 						"/>
					</g>
				</g>
			</g>
			<g>
				<g>
					<g>
						<polygon class="st0" points="23.9,167.7 27.9,166.6 26.3,160.9 29.2,160 30.9,166.2 34.9,164.9 31.8,154.3 13.6,159.6 
							14.9,164.2 22.4,162 						"/>
					</g>
				</g>
			</g>
			<g>
				<g>
					<g>
						<path class="st0" d="M40.8,183.6c0.7-2.2,0.4-4.6-0.7-7c-1.8-3.5-4.4-5.3-7.9-5.3c-1.5,0-3.3,0.4-5.1,1.3
							c-2.9,1.3-4.6,3.3-5.5,5.7c-0.7,2.2-0.4,4.6,0.7,7c1.8,3.3,4.4,5.3,7.9,5.3c1.5,0,3.3-0.4,5.1-1.3
							C38.2,187.8,40.2,186,40.8,183.6z M33.4,184.7c-1.1,0.7-2.4,0.9-3.5,0.9c-1.8,0-2.9-0.7-3.5-2.2c-0.4-1.1-0.7-2-0.2-2.9
							c0.4-1.3,1.8-2.6,3.5-3.5c1.1-0.4,2.2-0.9,3.3-0.9c1.8,0,2.9,0.7,3.5,2.2c0.4,1.1,0.7,2,0.2,2.9
							C36.2,182.5,35.1,183.8,33.4,184.7z"/>
					</g>
				</g>
			</g>
			<g>
				<g>
					<g>
						<path class="st0" d="M54,198.3l-8.6,6.8c-2.2,1.8-4,2-5.3,0.4c-0.4-0.7-0.7-1.3-0.7-2c0.2-0.9,0.9-2,2.2-3.1l8.6-6.8l-3.1-3.7
							l-9.5,7.5c-2,1.5-3.1,3.3-3.1,5.3c0,1.8,0.7,3.5,2.2,5.5c1.8,2.4,3.7,3.5,5.9,3.5c1.5,0,3.1-0.7,4.6-2l9.5-7.7L54,198.3z"/>
					</g>
				</g>
			</g>
			<g>
				<g>
					<g>
						<polygon class="st0" points="70.1,213.7 63.1,222.5 65.7,210.2 61.5,206.7 49.4,221.4 53.2,224.5 60.2,215.7 57.6,228 
							61.7,231.5 73.8,216.8 						"/>
					</g>
				</g>
			</g>
			<g>
				<g>
					<g>
						<path class="st0" d="M84.2,222.7l-4.8-2.4l-8.6,16.9l4.8,2.4c2.4,1.1,4.4,1.8,6.4,1.8c3.3,0,5.9-1.8,7.7-5.3
							C92.5,230.4,90.6,226,84.2,222.7z M85.1,234c-0.9,2-2.6,3.1-4.6,3.1c-0.9,0-1.5-0.2-2.4-0.7l-1.1-0.7l4.8-9.7l1.1,0.7
							c1.3,0.7,2.2,1.8,2.6,2.9C85.9,231.1,85.7,232.4,85.1,234z"/>
					</g>
				</g>
			</g>
			<g>
				<g>
					<g>
						<polygon class="st0" points="94.7,247.8 106,250.9 107.1,246.9 100.5,245.2 101.3,241.7 107.5,243.2 108.6,239.2 102.4,237.7 
							103.1,234.6 109.9,236.4 110.8,232.4 99.6,229.6 						"/>
					</g>
				</g>
			</g>
			<g>
				<g>
					<g>
						<path class="st0" d="M122.7,234l-5.5-0.2l-1.1,18.9l5.5,0.2c0.4,0,0.9,0,1.3,0c6.4,0,9.7-3.1,10.1-9c0.2-2.9-0.4-5.3-2-7
							C129.3,235.3,126.6,234.2,122.7,234z M122.5,248.9h-1.3l0.7-10.8h1.3c2.6,0.2,5.1,2.2,4.8,5.7
							C127.7,247.4,125.1,248.9,122.5,248.9z"/>
					</g>
				</g>
			</g>
			<g>
				<g>
					<g>
						<path class="st0" d="M149.7,232.4l-3.3,20l5.1-1.1l0.7-4.2l6.2-1.3l2.4,3.7l5.3-1.1l-11.2-16.9L149.7,232.4z M152.8,243
							l0.7-5.1l2.6,4.2L152.8,243z"/>
					</g>
				</g>
			</g>
			<g>
				<g>
					<g>
						<polygon class="st0" points="167.8,242.3 169.5,246.9 173.9,245.2 172.4,240.8 						"/>
					</g>
				</g>
			</g>
			<g>
				<g>
					<g>
						<path class="st0" d="M177,223.2l-4.8,2.6l9,16.7l4.8-2.6c6.4-3.5,7.9-7.9,5.1-13.4C188.2,220.8,183.4,219.7,177,223.2z
							 M184.7,235.9l-1.1,0.7l-5.1-9.5l1.1-0.7c0.7-0.4,1.5-0.7,2.4-0.7c2,0,3.5,1.1,4.6,2.9C188.5,231.8,186.9,234.6,184.7,235.9z"
							/>
					</g>
				</g>
			</g>
			<g>
				<g>
					<g>
						<polygon class="st0" points="194.8,229.1 197.5,233.1 201.4,230.2 198.8,226.3 						"/>
					</g>
				</g>
			</g>
			<g>
				<g>
					<g>
						<polygon class="st0" points="202.3,204.7 201.4,212.2 205.6,212.8 206.1,209.8 215.1,218.8 218.6,215.5 205.2,201.8 						"/>
					</g>
				</g>
			</g>
			<g>
				<g>
					<g>
						<path class="st0" d="M228.1,194.8c-1.5-1.1-3.3-1.3-5.3-0.7c0-1.8-0.9-3.5-2.2-4.4c-2.4-1.8-5.5-0.7-7.9,2.4
							c-2.2,3.1-2,6.2,0.7,8.1c1.3,0.9,3.1,1.1,4.6,0.7c-0.2,2,0.4,3.5,2,4.6c1.1,0.9,2.2,1.1,3.3,1.1c2,0,3.7-1.1,5.5-3.3
							c1.3-1.8,2-3.5,1.8-5.3C230.3,197,229.4,195.9,228.1,194.8z M219,196.1c-0.7,0.4-1.3,0.9-2,0.9c-0.2,0-0.7,0-0.9-0.2
							c-0.9-0.7-0.4-1.8,0-2.4c0.2-0.4,0.7-0.7,1.1-0.7c0.2,0,0.7,0.2,1.1,0.4C219,194.6,219.3,195.5,219,196.1z M225.6,201.4
							c-0.7,0.9-1.8,1.1-2.6,0.4c-0.7-0.7-1.1-1.3-0.9-2.6c1.3-0.9,2.4-1.1,3.3-0.4c0.4,0.2,0.7,0.7,0.7,1.1S225.9,201,225.6,201.4z
							"/>
					</g>
				</g>
			</g>
			<g>
				<g>
					<g>
						<path class="st0" d="M236.6,176.3c-3.3-1.5-6.4-0.7-7.9,2.4c-0.4,0.9-0.7,1.8-0.4,2.6c-1.1-0.9-2.2-2.4-1.3-4.4
							c0.4-0.9,1.1-1.5,1.8-2.2l0.7-0.4l-3.5-2.4l-0.4,0.4c-0.9,0.9-1.8,2-2.4,3.3c-0.9,2-1.1,3.7-0.4,5.5c1.1,3.1,4.2,5.3,6.6,6.4
							c2.2,1.1,4,1.5,5.5,1.5c2.4,0,4.2-1.1,5.5-3.5C241.9,181.6,240.6,178.3,236.6,176.3z M236.6,183.4c-0.2,0.7-0.9,0.9-1.5,0.9
							c-0.4,0-1.1-0.2-1.5-0.4c-0.9-0.4-1.5-1.1-1.8-1.5c-0.2-0.4,0-0.7,0-1.1c0.2-0.7,0.7-0.9,1.5-0.9c0.4,0,1.1,0.2,1.8,0.4
							c0.9,0.4,1.3,0.9,1.5,1.5C236.9,182.7,236.6,183.1,236.6,183.4z"/>
					</g>
				</g>
			</g>
			<g>
				<g>
					<g>
						<path class="st0" d="M243.5,157c-3.7-1.1-6.8,0.7-7.9,4.2c0,0.4-0.2,0.7-0.2,0.9l-2.2-0.7l2-6.6l-3.7-1.1l-3.3,11l10.6,3.3
							v-0.9c0-1.1,0.2-2,0.4-3.1c0.2-0.9,1.3-3.1,3.3-2.6c2.2,0.7,1.8,3.1,1.5,3.7c-0.4,1.3-1.1,2.2-1.8,3.1l-0.7,0.7l4.4,1.5
							l0.2-0.4c0.7-1.3,1.3-2.9,1.8-4c0.7-2.2,0.7-4.2-0.2-5.9C246.8,158.7,245.2,157.6,243.5,157z"/>
					</g>
				</g>
			</g>
		</g>
		<g>
			<g>
				<g>
					<path class="st0" d="M104.3,111l-0.9-0.5C98,107.6,89,102.3,89,98.3V77.4h31.2v21.1c0,3.5-8.2,8.5-15,12L104.3,111z M92.8,90.9
						v7.4c0.4,1.3,5.6,5.1,11.5,8.3c6.1-3.2,11.4-6.9,12.1-8.3v-7.4H92.8z M92.8,87.1h23.6v-5.9H92.8V87.1z"/>
				</g>
			</g>
		</g>
		<g>
			<g>
				<g>
					<path class="st0" d="M131.3,262.6C58.9,262.6,0,203.7,0,131.3S58.9,0,131.3,0s131.3,58.9,131.3,131.3S203.7,262.6,131.3,262.6z
						 M131.3,3.8C61,3.8,3.8,61,3.8,131.3S61,258.8,131.3,258.8s127.5-57.2,127.5-127.5S201.6,3.8,131.3,3.8z"/>
				</g>
			</g>
		</g>
		<g>
			<g>
				<g>
					<path class="st0" d="M131.3,227.2c-52.9,0-95.9-43-95.9-95.9s43-95.9,95.9-95.9s95.9,43,95.9,95.9
						C227.2,184.2,184.2,227.2,131.3,227.2z M131.3,39.2c-50.8,0-92.1,41.3-92.1,92.1s41.3,92.1,92.1,92.1s92.1-41.3,92.1-92.1
						S182.1,39.2,131.3,39.2z"/>
				</g>
			</g>
		</g>
		<g>
			<g>
				<g>
					<path class="st1" d="M131.3,85.2"/>
				</g>
			</g>
		</g>
		<g>
			<g>
				<g>
					<path class="st0" d="M158.1,111l-0.9-0.5c-5.5-2.9-14.7-8.2-14.7-12.2V77.4h31.2v21.1c0,2.8-5,6.8-14.7,12L158.1,111z
						 M146.3,98.2c0.5,1.4,5.8,5.2,11.8,8.4c5.9-3.2,11.1-6.9,11.8-8.3v-2.6L158.1,88l-11.8,7.7V98.2z M169.9,98.3L169.9,98.3
						L169.9,98.3z M158.1,83.4l11.8,7.7v-9.9h-23.5v9.9L158.1,83.4z"/>
				</g>
			</g>
		</g>
		<g>
			<g>
				<g>
					
						<rect x="111.3" y="141.9" transform="matrix(0.999 -4.550182e-02 4.550182e-02 0.999 -6.4349 5.5141)" class="st0" width="13.2" height="4.4"/>
				</g>
			</g>
		</g>
		<g>
			<g>
				<g>
					
						<rect x="111.3" y="154" transform="matrix(0.999 -4.528212e-02 4.528212e-02 0.999 -6.9523 5.4991)" class="st0" width="13.2" height="4.4"/>
				</g>
			</g>
		</g>
		<g>
			<g>
				<g>
					
						<rect x="111.3" y="166.1" transform="matrix(0.999 -4.528212e-02 4.528212e-02 0.999 -7.5002 5.5115)" class="st0" width="13.2" height="4.4"/>
				</g>
			</g>
		</g>
		<g>
			<g>
				<g>
					<rect x="96.3" y="144.2" class="st0" width="7.3" height="6.1"/>
				</g>
			</g>
		</g>
		<g>
			<g>
				<g>
					<rect x="96.3" y="161.6" class="st0" width="7" height="6.1"/>
				</g>
			</g>
		</g>
		<g>
			<g>
				<g>
					<path class="st0" d="M129.5,180.7c-0.1-0.1-2.6-1.9-4.2-1.7c-7.9,1.3-20.7,1-21.3,1h-1.9v-47.4l2.1,0.2
						c0.1,0,10.1,1.1,19.1-0.5c3.1-0.8,6.3,0,7.9,0.6c1.6-0.5,5.1-1.4,8.3-0.6c9,1.6,19,0.5,19.1,0.5l2.1-0.2V180h-1.9
						c-0.6,0-13.7,0.3-21.6-1c-1.7-0.3-3.8,1.3-4.4,1.7l-1.6,1.1L129.5,180.7z M126.1,175.1c2.2-0.1,3.8,1,5,1.8
						c1.4-0.9,4.2-2.2,6.9-1.7c5.8,1,15,1,19,1v-39.4c-3.6,0.3-11,0.6-18.1-0.7h-0.2c-2.9-0.8-6.6,0.5-6.6,0.5l-0.9,0.2H131
						c0,0-3.6-1.5-6.5-0.7h-0.2c-7.1,1.3-14.5,1-18.1,0.7v39.4c3.9,0,13.1,0,19-1C125.7,175.1,125.7,175.1,126.1,175.1z"/>
				</g>
			</g>
		</g>
		<g>
			<g>
				<g>
					
						<rect x="142.8" y="149.6" transform="matrix(4.537537e-02 -0.999 0.999 4.537537e-02 -17.6213 294.0034)" class="st0" width="4.4" height="13.2"/>
				</g>
			</g>
		</g>
		<g>
			<g>
				<g>
					
						<rect x="142.8" y="161.7" transform="matrix(4.537537e-02 -0.999 0.999 4.537537e-02 -29.7122 305.5572)" class="st0" width="4.4" height="13.2"/>
				</g>
			</g>
		</g>
		<g>
			<g>
				<g>
					<rect x="159.4" y="144.2" class="st0" width="7" height="6.1"/>
				</g>
			</g>
		</g>
		<g>
			<g>
				<g>
					<rect x="159.4" y="161.6" class="st0" width="7" height="6.1"/>
				</g>
			</g>
		</g>
		<g>
			<g>
				<g>
					
						<rect x="142.8" y="137.7" transform="matrix(3.784857e-02 -0.9993 0.9993 3.784857e-02 -4.6885 283.7716)" class="st0" width="4.4" height="13.2"/>
				</g>
			</g>
		</g>
	</g>
	<g>
		<g>
			<g>
				<path class="st0" d="M131.1,218.8l-0.8-0.3c-0.6-0.3-14.9-6.7-29.5-18c-19.6-15.2-30.2-31.8-30.5-48.2c0.7-35,0.1-81.6,0.1-82.1
					v-1.9h122v1.9c0,0.5-0.1,47.7-0.1,82.1c0,16.4-10.5,33-30.4,48.2c-14.8,11.3-29.4,17.8-30,18L131.1,218.8z M133,119.7v93.9
					c11.4-5.6,55.3-29.3,55.3-61.5c0-10.2,0-21.6,0-32.5L133,119.7L133,119.7z M74.5,119.7c0,10.9-0.1,22.2-0.3,32.5
					c0.4,19,16,35.1,29,45.1c10.6,8.2,21.2,13.9,26,16.3v-93.9C129.2,119.7,74.5,119.7,74.5,119.7z M74.5,115.9h113.9
					c0-20.1,0.1-38.1,0.1-43.9H74.2C74.3,77.8,74.5,95.7,74.5,115.9z"/>
			</g>
		</g>
	</g>
</g>
</svg>
